<?xml version="1.0" standalone="no"?>
<!DOCTYPE svg PUBLIC "-//W3C//DTD SVG 20010904//EN"
 "http://www.w3.org/TR/2001/REC-SVG-20010904/DTD/svg10.dtd">
<svg version="1.0" xmlns="http://www.w3.org/2000/svg"
 width="120.000000pt" height="130.000000pt" viewBox="0 0 120.000000 130.000000"
 preserveAspectRatio="xMidYMid meet">

<g transform="translate(0.000000,130.000000) scale(0.100000,-0.100000)"
fill="#000000" stroke="none">
<path d="M585 1231 c-133 -32 -229 -141 -388 -440 -53 -99 -64 -127 -56 -142
9 -19 43 -25 72 -13 8 3 72 68 142 144 129 141 177 177 218 164 12 -3 63 -37
112 -74 144 -109 195 -127 242 -88 22 18 15 32 -55 103 -81 82 -126 168 -143
270 -6 39 -17 73 -23 77 -14 9 -81 8 -121 -1z"/>
<path d="M176 880 c-54 -54 -95 -104 -91 -110 3 -5 17 -10 30 -10 18 0 35 16
68 63 47 66 102 157 95 157 -2 0 -48 -45 -102 -100z"/>
<path d="M460 604 c0 -34 1 -35 33 -32 28 3 32 7 35 36 3 31 2 32 -32 32 -35
0 -36 -1 -36 -36z"/>
<path d="M560 604 c0 -34 1 -35 33 -32 28 3 32 7 35 36 3 31 2 32 -32 32 -35
0 -36 -1 -36 -36z"/>
<path d="M877 629 c-43 -26 -62 -123 -49 -251 l8 -78 -126 0 c-307 -1 -421
-17 -436 -62 -10 -33 14 -48 75 -48 68 0 179 -26 321 -75 140 -49 261 -58 335
-26 28 12 58 33 68 47 19 25 18 26 -6 62 -73 111 -107 210 -115 337 -7 97 -8
100 -32 102 -14 2 -33 -2 -43 -8z"/>
<path d="M460 504 c0 -34 1 -35 33 -32 28 3 32 7 35 36 3 31 2 32 -32 32 -35
0 -36 -1 -36 -36z"/>
<path d="M560 505 c0 -33 2 -35 35 -35 33 0 35 2 35 35 0 33 -2 35 -35 35 -33
0 -35 -2 -35 -35z"/>
<path d="M318 154 c-5 -4 -8 -13 -8 -21 0 -10 28 -13 133 -12 130 1 131 1 87
16 -52 17 -201 29 -212 17z"/>
</g>
</svg>
